<?xml version="1.0" encoding="UTF-8"?>
<!DOCTYPE svg PUBLIC "-//W3C//DTD SVG 1.1//EN" "http://www.w3.org/Graphics/SVG/1.1/DTD/svg11.dtd">
<!-- Creator: CorelDRAW -->
<svg xmlns="http://www.w3.org/2000/svg" xml:space="preserve" width="162.597mm" height="68.877mm" version="1.1" style="shape-rendering:geometricPrecision; text-rendering:geometricPrecision; image-rendering:optimizeQuality; fill-rule:evenodd; clip-rule:evenodd"
viewBox="0 0 7800.67 3304.4"
 xmlns:xlink="http://www.w3.org/1999/xlink"
 xmlns:xodm="http://www.corel.com/coreldraw/odm/2003">
 <defs>
  <style type="text/css">
   <![CDATA[
    .fil0 {fill:#FEFEFE;fill-rule:nonzero}
    .fil2 {fill:#C49369;fill-rule:nonzero}
    .fil1 {fill:#ED5338;fill-rule:nonzero}
   ]]>
  </style>
 </defs>
 <g id="Слой_x0020_1">
  <metadata id="CorelCorpID_0Corel-Layer"/>
  <g id="_2101737153248">
   <polygon class="fil0" points="2681.3,1513.5 2681.3,750.29 2910.26,750.29 3139.23,1009.78 3351.21,750.29 3573.4,750.29 3573.4,1513.5 3319,1513.5 3319,1138.68 3134.13,1350.68 3129.04,1350.68 2935.69,1138.68 2935.69,1513.5 "/>
   <path class="fil0" d="M4104.19 1296.42c88.19,0 152.64,-62.76 152.64,-164.53 0,-96.67 -66.16,-164.49 -152.64,-164.49 -86.49,0 -152.64,64.43 -152.64,164.49 0,94.98 64.45,164.53 152.64,164.53zm-424 -164.53c0,-117.02 39.01,-212 115.33,-288.31 78.02,-76.33 181.46,-113.63 308.67,-113.63 127.21,0 230.65,37.3 306.98,113.63 78.01,76.31 117.02,171.29 117.02,288.31 0,117.02 -39.01,212.02 -117.02,288.31 -76.33,76.33 -179.77,113.63 -306.98,113.63 -127.21,0 -230.65,-37.31 -308.67,-113.63 -76.31,-76.3 -115.33,-171.3 -115.33,-288.31z"/>
   <path class="fil0" d="M4960.66 377.19c0,66.13 23.73,98.37 71.21,98.37 42.4,0 64.47,-32.24 64.47,-98.37l220.46 0c0,167.89 -101.75,288.31 -284.93,288.31 -198.42,0 -291.69,-117.03 -291.69,-288.31l220.48 0zm-71.24 1136.31l-254.39 0 0 -763.2 254.39 0 0 398.56 271.35 -398.56 254.39 0 0 763.2 -254.39 0 0 -398.56 -271.35 398.56z"/>
   <path class="fil0" d="M1022.72 2420.83c72.94,0 133.99,-25.44 179.79,-74.62 47.49,-49.18 71.22,-110.25 71.22,-183.16 0,-154.36 -89.87,-259.49 -244.22,-259.49 -67.83,0 -125.49,18.65 -172.97,57.66 -47.51,38.99 -78.04,84.79 -89.9,137.38 0,195.02 105.15,322.23 256.09,322.23zm317.15 -987.06c-27.13,37.32 -59.36,62.76 -98.35,76.31 -39.01,13.58 -86.52,25.44 -142.47,33.92 -55.97,8.48 -105.15,23.76 -147.55,42.42 -115.33,52.57 -179.77,174.69 -193.35,368.02l3.39 0c49.2,-106.85 173,-178.08 301.89,-178.08 217.09,0 354.47,149.24 354.47,379.91 0,108.54 -37.31,201.83 -110.23,278.14 -72.94,76.31 -167.91,113.63 -281.54,113.63 -123.81,0 -222.19,-42.4 -295.1,-127.21 -72.93,-84.81 -108.53,-200.12 -108.53,-347.68 0,-330.71 94.96,-535.91 283.22,-615.63 45.8,-20.34 96.67,-33.92 149.24,-42.4 106.87,-18.65 166.22,-28.84 212.02,-88.19l72.91 106.85z"/>
   <polygon class="fil0" points="1675.64,2531.07 1539.96,2531.07 1539.96,1767.87 1675.64,1767.87 1675.64,2336.03 2116.61,1767.87 2252.28,1767.87 2252.28,2531.07 2116.61,2531.07 2116.61,1962.92 "/>
   <path class="fil0" d="M2494.77 2519.19c-62.74,-20.35 -106.83,-45.78 -132.28,-74.62l69.54 -101.75c61.05,49.18 156.03,83.1 225.56,83.1 117.04,0 200.12,-50.89 200.12,-125.49 0,-62.76 -55.95,-98.37 -149.24,-98.37l-128.88 0 0 -110.25 120.4 0c76.33,0 132.28,-47.49 132.28,-108.53 0,-67.85 -62.74,-110.25 -162.81,-110.25 -81.39,0 -157.72,28.82 -228.94,84.81l-52.57 -105.15c61.05,-62.76 179.77,-101.77 301.87,-101.77 183.18,0 286.62,78.02 286.62,205.21 0,88.19 -44.09,147.55 -133.98,179.79l0 3.38c101.77,11.88 159.41,86.5 159.41,179.77 0,140.76 -132.28,228.96 -323.92,228.96 -59.37,0 -120.42,-10.17 -183.18,-28.84z"/>
   <polygon class="fil0" points="3695.49,2531.07 3695.49,2208.82 3271.49,2208.82 3271.49,2531.07 3135.82,2531.07 3135.82,1767.87 3271.49,1767.87 3271.49,2081.62 3695.49,2081.62 3695.49,1767.87 3831.17,1767.87 3831.17,2531.07 "/>
   <path class="fil0" d="M4097.42 2081.62l463.01 0c-6.79,-127.19 -89.89,-203.5 -220.48,-203.5 -135.69,0 -227.26,83.1 -242.53,203.5zm551.2 366.35c-72.93,66.12 -169.6,100.06 -286.62,100.06 -123.82,0 -222.17,-35.63 -296.79,-108.54 -74.62,-72.94 -111.96,-169.62 -111.96,-290.02 0,-115.34 35.63,-210.31 105.15,-284.93 69.55,-76.31 166.22,-113.63 288.31,-113.63 100.09,0 184.87,32.23 252.72,98.36 67.83,64.45 101.75,147.55 101.75,251.01 0,35.61 -3.39,66.14 -8.48,91.58l-586.81 0c11.86,142.47 115.32,228.96 266.28,228.96 100.06,0 178.08,-27.14 234.03,-79.72l42.41 106.87z"/>
   <path class="fil0" d="M5454.18 2420.83c-62.76,81.41 -173,127.21 -293.4,127.21 -122.13,0 -220.48,-35.63 -296.8,-108.54 -74.6,-72.94 -111.92,-169.62 -111.92,-290.02 0,-111.94 37.32,-206.92 110.23,-283.23 72.93,-76.31 166.22,-115.32 276.44,-115.32 133.98,0 234.03,33.91 300.19,100.06l-62.76 106.86c-57.66,-52.6 -130.59,-79.72 -218.78,-79.72 -71.22,0 -132.28,25.44 -184.85,78.01 -50.89,50.87 -76.33,115.32 -76.33,193.35 0,81.39 25.44,147.55 78.02,196.73 52.57,49.18 118.71,74.62 196.73,74.62 88.19,0 161.12,-32.23 218.77,-98.36l64.46 98.36z"/>
   <polygon class="fil1" points="7037.21,2772.31 6782.4,2517.81 6527.56,2772.31 6782.33,3304.4 "/>
   <path class="fil2" d="M6781.18 1054.07c-97.77,0 -177.07,79.31 -177.07,177.08 0,97.79 79.29,177.08 177.07,177.08 97.79,0 177.08,-79.29 177.08,-177.08 0,-97.77 -79.29,-177.08 -177.08,-177.08z"/>
   <path class="fil2" d="M7009.5 1959l-227.12 -227.5 -227.11 227.5c-11.59,-31.54 -163.74,-443.38 -163.74,-712.11 0,-362.46 363.54,-565.54 390.86,-580.42 27.34,14.88 390.88,217.96 390.88,580.42 0,268.73 -152.15,680.57 -163.76,712.11zm-227.12 -1699.64c-53.94,27.64 -758.89,400.15 -758.89,995.39 0,509.12 414.91,1281.31 414.91,1281.31l343.97 -344.57 343.98 344.57c0,0 414.96,-772.18 414.96,-1281.31 0,-595.24 -704.98,-967.75 -758.94,-995.39z"/>
   <polygon class="fil2" points="7541.29,518.74 7281.91,259.37 7541.29,0 7800.67,259.37 "/>
   <path class="fil0" d="M-0 2768.16l0 410.71 52.5 0 0 -188.26 16.93 0c69.43,0 95.68,37.13 114.68,91.36 10.88,32.3 22.45,68.91 37.13,96.89l57.17 0c-18.31,-36.61 -29.88,-74.27 -45.08,-116.41 -21.24,-55.44 -47.5,-96.89 -115.03,-106.04l155.27 -188.26 -63.9 0 -140.76 182.21 -16.41 0 0 -182.21 -52.5 0z"/>
   <path class="fil0" d="M547.73 3178.87c-3.63,-20.03 -4.84,-45.08 -4.84,-70.64l0 -110.36c0,-59.07 -21.93,-120.55 -112.09,-120.55 -37.13,0 -72.54,10.36 -96.89,26.08l12.26 35.41c20.55,-13.47 49.22,-21.93 76.68,-21.93 60.28,0 67.01,43.87 67.01,68.22l0 6.04c-113.99,-0.52 -177.37,38.51 -177.37,109.67 0,42.66 30.57,84.8 90.33,84.8 41.97,0 73.58,-20.73 90.16,-43.87l1.73 0 4.32 37.13 48.7 0zm-56.65 -99.31c0,5.53 -1.21,11.57 -3.11,17.1 -8.46,24.87 -32.82,49.22 -71.16,49.22 -27.46,0 -50.6,-16.41 -50.6,-51.12 0,-57.17 66.32,-67.53 124.87,-66.32l0 51.12zm138.34 220.03l52.85 0 0 -160.28 1.38 0c17.62,29.19 51.64,46.29 90.67,46.29 69.43,0 134.02,-52.5 134.02,-158.38 0,-89.64 -53.54,-149.91 -124.87,-149.91 -48.19,0 -82.9,21.24 -104.84,57.17l-1.21 0 -2.42 -50.43 -48.19 0c1.21,27.98 2.59,58.38 2.59,96.2l0 319.34zm52.85 -291.36c0,-7.25 1.9,-15.2 3.8,-21.93 10.36,-40.24 44.39,-66.32 81,-66.32 56.65,0 87.74,50.43 87.74,109.67 0,67.53 -32.99,113.82 -89.64,113.82 -38.34,0 -70.64,-25.56 -80.31,-62.69 -1.21,-6.74 -2.59,-13.99 -2.59,-21.93l0 -50.6zm505.7 170.64c-3.63,-20.03 -4.84,-45.08 -4.84,-70.64l0 -110.36c0,-59.07 -21.93,-120.55 -112.09,-120.55 -37.13,0 -72.54,10.36 -96.89,26.08l12.26 35.41c20.55,-13.47 49.22,-21.93 76.68,-21.93 60.28,0 67.01,43.87 67.01,68.22l0 6.04c-113.99,-0.52 -177.37,38.51 -177.37,109.67 0,42.66 30.57,84.8 90.33,84.8 41.97,0 73.58,-20.73 90.16,-43.87l1.73 0 4.32 37.13 48.7 0zm-56.65 -99.31c0,5.53 -1.21,11.57 -3.11,17.1 -8.46,24.87 -32.82,49.22 -71.16,49.22 -27.46,0 -50.6,-16.41 -50.6,-51.12 0,-57.17 66.32,-67.53 124.87,-66.32l0 51.12z"/>
   <path class="fil0" d="M1256.06 2884.05l0 102.94c0,67.53 40.93,96.2 96.89,96.2 28.15,0 59.76,-9.15 79.79,-22.45l1.21 0 0 118.13 53.02 0 0 -294.82 -53.02 0 0 138.86c-16.41,12.09 -40.07,20.73 -63.21,20.73 -46.98,0 -60.97,-25.56 -60.97,-62.87l0 -96.72 -53.71 0zm530.74 294.82c-3.63,-20.03 -4.84,-45.08 -4.84,-70.64l0 -110.36c0,-59.07 -21.93,-120.55 -112.09,-120.55 -37.13,0 -72.54,10.36 -96.89,26.08l12.26 35.41c20.55,-13.47 49.22,-21.93 76.68,-21.93 60.27,0 67.01,43.87 67.01,68.22l0 6.04c-113.98,-0.52 -177.37,38.51 -177.37,109.67 0,42.66 30.57,84.8 90.33,84.8 41.96,0 73.57,-20.73 90.15,-43.87l1.73 0 4.32 37.13 48.7 0zm-56.65 -99.31c0,5.53 -1.21,11.57 -3.11,17.1 -8.46,24.87 -32.82,49.22 -71.15,49.22 -27.46,0 -50.6,-16.41 -50.6,-51.12 0,-57.17 66.32,-67.53 124.87,-66.32l0 51.12zm375.3 -38.34c0.52,-5.53 1.73,-13.99 1.73,-25.04 0,-54.23 -25.56,-138.86 -121.76,-138.86 -86.01,0 -138.34,69.95 -138.34,158.89 0,89.12 54.23,148.7 145.08,148.7 46.8,0 79.1,-9.67 98.1,-18.31l-9.15 -38.34c-20.21,8.64 -43.35,15.2 -81.69,15.2 -53.54,0 -100,-29.71 -101.21,-102.25l207.25 0zm-206.56 -38.51c4.32,-37.13 27.98,-87.05 82.21,-87.05 60.28,0 74.96,53.02 74.44,87.05l-156.65 0zm273.4 176.17c15.89,1.21 50.09,3.63 82.9,3.63 57.86,0 155.44,-9.67 155.44,-87.05 0,-42.66 -31.78,-67.01 -74.96,-73.23l0 -1.21c33.51,-7.25 61.49,-29.88 61.49,-66.32 0,-65.8 -81.52,-73.75 -130.92,-73.75 -34.72,0 -73.23,3.11 -93.96,6.74l0 291.19zm51.3 -258.38c12.78,-1.21 23.66,-2.42 41.45,-2.42 53.54,0 79.1,13.99 79.1,43.35 0,34.72 -40.76,46.29 -80.31,46.29l-40.24 0 0 -87.22zm-0.69 122.45l39.03 0c51.12,0 93.78,9.15 93.78,51.81 0,42.66 -53.54,51.12 -89.46,51.12 -17.1,0 -28.15,-0.52 -43.35,-2.42l0 -100.52zm380.31 -165.63c-81.69,0 -146.29,57.86 -146.29,156.48 0,93.26 61.49,151.81 141.45,151.81 71.16,0 146.8,-47.5 146.8,-156.65 0,-90.16 -57.34,-151.64 -141.97,-151.64zm-1.21 40.24c63.39,0 88.26,63.21 88.26,113.3 0,66.32 -38.34,114.51 -89.46,114.51 -52.5,0 -89.64,-48.7 -89.64,-113.3 0,-56.13 27.46,-114.51 90.85,-114.51zm184.63 76.68l0 39.55 150.43 0 0 -39.55 -150.43 0zm211.92 -226.08l0 138.34c0,100.52 67.18,123.66 121.42,123.66 35.92,0 69.95,-9.15 98.62,-25.56l1.21 0 0 174.27 53.71 0 0 -410.71 -53.71 0 0 194.99c-21.24,13.47 -52.33,23.14 -81,23.14 -57.86,0 -87.22,-31.61 -87.22,-87.74l0 -130.4 -53.02 0zm602.07 273.06c0.52,-5.53 1.73,-13.99 1.73,-25.04 0,-54.23 -25.56,-138.86 -121.76,-138.86 -86.01,0 -138.34,69.95 -138.34,158.89 0,89.12 54.23,148.7 145.08,148.7 46.8,0 79.1,-9.67 98.1,-18.31l-9.15 -38.34c-20.21,8.64 -43.35,15.2 -81.69,15.2 -53.54,0 -100,-29.71 -101.21,-102.25l207.25 0zm-206.56 -38.51c4.32,-37.13 27.98,-87.05 82.21,-87.05 60.28,0 74.96,53.02 74.44,87.05l-156.65 0zm274.78 296.89l52.85 0 0 -160.28 1.38 0c17.62,29.19 51.64,46.29 90.67,46.29 69.43,0 134.02,-52.5 134.02,-158.38 0,-89.64 -53.54,-149.91 -124.87,-149.91 -48.19,0 -82.9,21.24 -104.84,57.17l-1.21 0 -2.42 -50.43 -48.19 0c1.21,27.98 2.59,58.38 2.59,96.2l0 319.34zm52.85 -291.36c0,-7.25 1.9,-15.2 3.8,-21.93 10.36,-40.24 44.39,-66.32 81,-66.32 56.65,0 87.74,50.43 87.74,109.67 0,67.53 -32.99,113.82 -89.64,113.82 -38.34,0 -70.64,-25.56 -80.31,-62.69 -1.21,-6.74 -2.59,-13.99 -2.59,-21.93l0 -50.6zm293.78 -124.18l0 294.82 52.85 0 0 -129.71 10.36 0c50.09,0 77.37,21.93 97.58,69.43 9.15,24.35 19.52,47.5 27.46,60.28l55.96 0c-13.3,-23.83 -23.66,-52.33 -31.61,-71.85 -23.14,-53.02 -51.81,-84.8 -99.31,-89.64l128.5 -133.33 -65.11 0 -110.88 127.81 -12.95 0 0 -127.81 -52.85 0z"/>
   <path class="fil0" d="M4540.65 3041.22c0.52,-5.53 1.73,-13.99 1.73,-25.04 0,-54.23 -25.56,-138.86 -121.76,-138.86 -86.01,0 -138.34,69.95 -138.34,158.89 0,89.12 54.23,148.7 145.08,148.7 46.8,0 79.1,-9.67 98.1,-18.31l-9.15 -38.34c-20.21,8.64 -43.35,15.2 -81.69,15.2 -53.54,0 -100,-29.71 -101.21,-102.25l207.25 0zm-206.56 -38.51c4.32,-37.13 27.98,-87.05 82.21,-87.05 60.28,0 74.96,53.02 74.44,87.05l-156.65 0zm475.82 125.04c-15.2,6.56 -35.41,14.51 -65.8,14.51 -58.55,0 -102.42,-41.97 -102.42,-110.19 0,-61.66 36.61,-111.57 104.15,-111.57 29.36,0 49.4,6.74 62.18,13.99l12.26 -41.45c-14.68,-7.25 -42.66,-15.2 -74.44,-15.2 -96.2,0 -158.38,65.8 -158.38,156.65 0,90.16 57.86,150.43 146.8,150.43 39.72,0 70.64,-9.67 84.8,-17.1l-9.15 -40.07zm70.47 -243.7l0 294.82 61.66 0c31.61,-51.81 63.9,-108.46 91.88,-154.23 17.1,-29.71 29.88,-53.54 48.88,-91.36l1.73 0c-2.42,47.5 -3.63,72.54 -3.63,120.73l0 124.87 51.12 0 0 -294.82 -62.69 0 -92.05 152.16c-19.34,34.2 -29.71,54.92 -47.5,90.85l-1.73 -0.52c2.42,-42.14 2.94,-71.33 2.94,-118.31l0 -124.18 -50.6 0z"/>
   <path class="fil0" d="M5436.7 2886.47c-25.56,-3.11 -59.76,-6.22 -94.99,-6.22 -38.51,0 -74.44,6.22 -98.79,20.21 -22.63,12.78 -39.03,33.51 -39.03,63.9 0,45.08 39.72,68.91 78.07,73.23l0 1.73c-13.47,2.42 -24.35,9.15 -33.51,17.1 -26.25,21.93 -33.51,60.28 -46.29,88.95 -5.53,12.78 -11.57,23.83 -18.31,33.51l57.17 0c4.32,-7.25 8.64,-15.2 12.26,-24.35 11.57,-28.67 19.52,-65.28 41.45,-82.9 11.57,-10.36 26.77,-16.41 49.4,-16.41l39.55 0 0 123.66 53.02 0 0 -292.4zm-53.02 132.12c-12.26,0 -23.83,0 -45.77,0 -31.61,0 -78.58,-13.3 -78.58,-51.12 0,-40.93 43.35,-51.12 79.79,-51.12 19,0 31.09,1.21 44.56,2.94l0 99.31z"/>
  </g>
 </g>
</svg>
